<?xml version="1.0" encoding="UTF-8" standalone="no"?>
<!-- Created with Inkscape (http://www.inkscape.org/) -->

<svg
   width="512"
   height="512"
   viewBox="0 0 135.46666 135.46667"
   version="1.1"
   id="svg5"
   inkscape:version="1.1 (c68e22c387, 2021-05-23)"
   sodipodi:docname="novelty.svg"
   xmlns:inkscape="http://www.inkscape.org/namespaces/inkscape"
   xmlns:sodipodi="http://sodipodi.sourceforge.net/DTD/sodipodi-0.dtd"
   xmlns="http://www.w3.org/2000/svg"
   xmlns:svg="http://www.w3.org/2000/svg">
  <sodipodi:namedview
     id="namedview7"
     pagecolor="#505050"
     bordercolor="#eeeeee"
     borderopacity="1"
     inkscape:pageshadow="0"
     inkscape:pageopacity="0"
     inkscape:pagecheckerboard="0"
     inkscape:document-units="px"
     showgrid="false"
     inkscape:zoom="0.46324355"
     inkscape:cx="93.903088"
     inkscape:cy="227.74197"
     inkscape:window-width="1366"
     inkscape:window-height="705"
     inkscape:window-x="-8"
     inkscape:window-y="-8"
     inkscape:window-maximized="1"
     inkscape:current-layer="layer1"
     units="px" />
  <defs
     id="defs2">
    <rect
       x="0"
       y="384.00006"
       width="511.99998"
       height="127.99992"
       id="rect12253" />
    <pattern
       id="EMFhbasepattern"
       patternUnits="userSpaceOnUse"
       width="6"
       height="6"
       x="0"
       y="0" />
    <rect
       x="0"
       y="384.00006"
       width="511.99998"
       height="127.99992"
       id="rect12253-6" />
  </defs>
  <g
     inkscape:label="Calque 1"
     inkscape:groupmode="layer"
     id="layer1">
    <path
       style="color:#000000;fill:#000000;fill-rule:evenodd;stroke-width:8.46667;-inkscape-stroke:none"
       d="M 16.933335,0 H 118.53333 c 9.38107,0 16.93333,7.5522663 16.93333,16.933332 V 118.53333 c 0,9.38106 -7.55226,16.93333 -16.93333,16.93333 H 16.933335 C 7.552269,135.46666 2.7270507e-6,127.91439 2.7270507e-6,118.53333 V 16.933332 C 2.7270507e-6,7.5522663 7.552269,0 16.933335,0 Z"
       id="rect846" />
    <path
       style="color:#000000;fill:#894efa;fill-rule:evenodd;stroke-width:8.46667;-inkscape-stroke:none"
       d="M 16.933332,8.5685921 H 118.53333 c 4.69054,0 8.46667,3.7761329 8.46667,8.4666659 v 84.666662 c 0,4.69054 -3.77613,8.46667 -8.46667,8.46667 H 16.933332 c -4.690533,0 -8.4666658,-3.77613 -8.4666658,-8.46667 V 17.035258 c 0,-4.690533 3.7761328,-8.4666659 8.4666658,-8.4666659 z"
       id="rect846-1" />
    <path
       style="color:#000000;fill:#000000;fill-rule:evenodd;stroke-width:0.264583;-inkscape-stroke:none"
       d="M 8.4666689,101.60001 H 127 c 4.69053,0 8.46666,3.77614 8.46666,8.46667 v 8.46667 c 0,4.69053 -3.77613,8.46666 -8.46666,8.46666 H 8.4666689 c -4.690533,0 -8.4666661729493,-3.77613 -8.4666661729493,-8.46666 v -8.46667 c 0,-4.69053 3.7761331729493,-8.46667 8.4666661729493,-8.46667 z"
       id="rect1024" />
    <path
       style="fill:#000000;stroke-width:0.772535"
       d="M 70.007788,92.003332 C 63.920776,90.386347 58.169432,87.30006 53.296035,83.035462 L 49.059407,79.328085 H 38.615701 28.171995 l -2.258181,-2.25818 c -2.898535,-2.898537 -3.059709,-6.766793 -0.410263,-9.846949 1.674545,-1.94679 2.417403,-2.17609 7.918486,-2.444263 6.573475,-0.320451 8.001921,-0.95333 8.001921,-3.545281 0,-3.003642 -1.425471,-3.536325 -9.463303,-3.536325 -5.14301,0 -8.31268,-0.363769 -9.779657,-1.122373 -4.393483,-2.271958 -4.983783,-8.919387 -1.065733,-12.001319 1.755921,-1.381205 3.12517,-1.554485 12.28344,-1.554485 10.14191,0 10.327541,-0.03098 11.572705,-1.93134 1.172258,-1.789093 1.172258,-2.073585 0,-3.862678 -0.73042,-1.114761 -2.001833,-1.931339 -3.007097,-1.931339 -4.371274,0 -7.729175,-5.743081 -5.916545,-10.119164 1.695741,-4.093879 3.161174,-4.559012 14.36342,-4.559012 8.052928,0 11.214994,-0.324623 15.085689,-1.548716 14.772125,-4.671631 29.083012,-1.598006 39.605603,8.506302 10.96035,10.52467 14.6298,25.496557 9.73456,39.718457 -6.3249,18.375375 -26.603053,29.553612 -44.829252,24.711912 z M 88.149447,88.445173 C 100.62536,85.299873 111.34938,73.107657 113.16141,60.008901 116.82516,33.524452 91.240845,13.41986 65.452578,22.518486 c -2.373785,0.837521 -6.36313,1.187032 -13.54886,1.187032 -11.733458,0 -13.062566,0.49001 -12.665041,4.669315 0.224272,2.35774 0.615107,2.784346 3.344086,3.65006 6.285212,1.993857 8.329618,7.235117 4.56654,11.70728 l -2.000012,2.376879 H 34.936385 c -10.322534,0 -12.098427,0.422051 -13.002637,3.090142 -0.216067,0.637344 -0.113289,1.910528 0.228329,2.829302 0.579673,1.559091 1.221479,1.687896 9.62376,1.931341 8.764219,0.253937 9.052023,0.318255 10.865445,2.428391 2.451207,2.852282 2.462317,6.705965 0.02745,9.536617 -1.658599,1.928234 -2.456562,2.174077 -8.289222,2.55382 -6.169313,0.401659 -6.486404,0.512852 -7.189803,2.521267 -0.5823,1.662663 -0.439666,2.428362 0.683603,3.669545 1.294813,1.430756 2.347974,1.568466 11.99501,1.568466 h 10.575571 l 4.562281,3.993114 c 9.722286,8.509389 20.935491,11.289278 33.133173,8.214116 z m -17.75539,-3.9701 C 61.627,81.553537 54.766024,75.721024 50.949241,67.945056 c -1.997465,-4.069458 -2.18619,-5.187544 -2.18619,-12.951845 0,-7.602802 0.218081,-8.963179 2.070439,-12.9153 10.961528,-23.387093 43.87189,-23.855572 55.27309,-0.786811 2.78631,5.637709 2.91427,6.237598 2.91427,13.662045 0,6.819573 -0.25367,8.30673 -2.08267,12.209546 -2.86218,6.107498 -9.027769,12.415836 -15.016327,15.363987 -4.079087,2.008129 -5.985566,2.44798 -11.657149,2.689466 -4.334632,0.184562 -7.895184,-0.08278 -9.870647,-0.741071 z m 6.713053,-4.947427 c 0.163744,-1.97423 0.652677,-2.968785 1.542265,-3.137268 1.005907,-0.190518 1.35773,0.423716 1.545069,2.69745 0.240127,2.914392 0.273676,2.942203 3.320509,2.753139 4.202433,-0.260769 10.85602,-3.659326 14.710729,-7.514034 3.854708,-3.854705 7.253258,-10.508289 7.514038,-14.710721 0.18905,-3.046832 0.16126,-3.080378 -2.75315,-3.320507 -2.27373,-0.187336 -2.88796,-0.539162 -2.69744,-1.545069 0.16993,-0.897217 1.16986,-1.378517 3.21364,-1.546816 2.96386,-0.244068 2.96643,-0.247279 2.47044,-3.090142 C 104.06866,39.197517 94.063091,29.278786 83.494669,27.830225 l -3.443915,-0.472041 v 3.251794 c 0,2.679525 -0.237936,3.206706 -1.351935,2.995591 -0.944831,-0.179055 -1.42414,-1.126646 -1.591709,-3.146791 -0.204913,-2.47031 -0.509576,-2.890583 -2.095493,-2.890583 -1.020651,0 -3.867704,0.751771 -6.326786,1.670601 -8.386158,3.133465 -17.217906,14.353551 -17.217906,21.874083 0,1.585917 0.42027,1.890586 2.890585,2.095493 2.020145,0.167569 2.967738,0.646877 3.14679,1.591708 0.211103,1.114013 -0.316065,1.351935 -2.995591,1.351935 h -3.251795 l 0.47584,3.471636 c 1.316776,9.606917 9.265202,18.54754 19.268547,21.67382 5.272592,1.647804 5.835866,1.484536 6.105809,-1.769825 z m -15.231864,-5.64115 c -0.567202,-0.917752 -0.748296,-0.646735 5.807553,-8.691367 4.660808,-5.719244 4.91005,-6.234245 4.967929,-10.265076 0.05749,-4.005053 -0.123742,-4.424961 -3.22234,-7.465755 -1.805805,-1.772107 -3.283281,-3.650577 -3.283281,-4.174376 0,-2.340937 1.98142,-1.714485 5.481628,1.73309 3.405361,3.354156 4.099113,3.709323 6.856551,3.510229 2.429966,-0.175452 3.47407,0.184708 5.021535,1.73218 2.751803,2.751802 2.604013,6.127654 -0.399762,9.131427 -1.982079,1.982082 -2.772896,2.285379 -5.011609,1.922086 -2.561405,-0.415657 -2.871338,-0.180095 -8.514496,6.471287 -5.845821,6.890261 -6.763958,7.61682 -7.703708,6.096275 z M 81.154377,57.255639 c 2.333381,-2.333379 0.990843,-5.738838 -2.262427,-5.738838 -4.667258,0 -4.531705,6.808847 0.137962,6.929331 0.500769,0.01285 1.456784,-0.522803 2.124473,-1.190493 z M 23.059981,34.003964 c -1.272779,-0.5121 -3.267016,-4.380996 -3.267016,-6.338131 0,-0.838289 0.9,-2.593757 1.999989,-3.901043 2.532828,-3.010079 6.198447,-3.224847 9.313196,-0.545655 5.789166,4.97963 -0.736179,13.725984 -8.046169,10.784829 z m 5.848895,-3.500133 c 1.970049,-1.970046 0.581085,-6.025778 -2.063639,-6.025778 -1.444931,0 -3.962138,2.249628 -3.962138,3.540962 0,2.645815 4.152452,4.358138 6.025777,2.484816 z"
       id="path827" />
    <g
       inkscape:label="Calque 1"
       id="layer1-3">
      <g
         aria-label="NOUVEAUTÉ"
         transform="matrix(0.26458333,0,0,0.26458333,25.244882,6.8438898)"
         id="text12251"
         style="font-weight:500;font-size:53.3333px;font-family:'Brandon Text';-inkscape-font-specification:'Brandon Text, Medium';white-space:pre;fill:#ffffff">
        <path
           style="color:#000000;-inkscape-font-specification:'Brandon Text, Medium';-inkscape-stroke:none"
           d="m 4.2133308,426.98664 c 0,0.53333 0.4799997,1.01333 1.0133328,1.01333 h 6.3466624 c 0.586667,0 1.013333,-0.48 1.013333,-1.01333 v -19.89332 c 0,0 0.05333,0 0.05333,0 l 20.746655,20.85332 c 0.426666,0.42667 0.799999,0.58667 1.333332,0.58667 h 0.533333 c 0.533333,0 1.013333,-0.32 1.013333,-0.96 V 391.68 c 0,-0.53334 -0.48,-1.01334 -1.013333,-1.01334 h -6.399996 c -0.586666,0 -1.013333,0.48 -1.013333,1.01334 v 18.93332 c 0,0 -0.05333,0 -0.05333,0 L 7.3066623,390.93333 c -0.4266664,-0.42667 -0.7999995,-0.8 -1.3333325,-0.8 H 5.1733302 c -0.533333,0 -1.0133327,0.42667 -1.0133327,0.96 z"
           id="path831" />
        <path
           style="color:#000000;-inkscape-font-specification:'Brandon Text, Medium';-inkscape-stroke:none"
           d="m 42.559914,409.38665 c 0,10.66666 8.479995,19.14666 19.146656,19.14666 10.66666,0 19.199988,-8.48 19.199988,-19.14666 0,-10.66666 -8.533328,-19.25332 -19.199988,-19.25332 -10.666661,0 -19.146656,8.58666 -19.146656,19.25332 z m 8.533329,0 c 0,-5.86666 4.799997,-10.71999 10.613327,-10.71999 5.866663,0 10.66666,4.85333 10.66666,10.71999 0,5.81333 -4.799997,10.61333 -10.66666,10.61333 -5.81333,0 -10.613327,-4.8 -10.613327,-10.61333 z"
           id="path833" />
        <path
           style="color:#000000;-inkscape-font-specification:'Brandon Text, Medium';-inkscape-stroke:none"
           d="m 86.826501,414.34665 c 0,8.10666 6.77333,14.18666 15.146659,14.18666 8.42666,0 15.25332,-6.08 15.25332,-14.18666 V 391.68 c 0,-0.53334 -0.48,-1.01334 -1.01333,-1.01334 h -6.56 c -0.58666,0 -1.01333,0.48 -1.01333,1.01334 v 22.23998 c 0,3.89333 -2.82666,6.08 -6.66666,6.08 -3.786665,0 -6.559997,-2.18667 -6.559997,-6.08 V 391.68 c 0,-0.53334 -0.426667,-1.01334 -1.013333,-1.01334 h -6.559996 c -0.533333,0 -1.013333,0.48 -1.013333,1.01334 z"
           id="path835" />
        <path
           style="color:#000000;-inkscape-font-specification:'Brandon Text, Medium';-inkscape-stroke:none"
           d="m 139.09308,410.71998 h -0.32 l -8.8,-19.46665 c -0.10666,-0.26667 -0.48,-0.58667 -0.90666,-0.58667 h -7.09333 c -0.8,0 -1.22667,0.69334 -0.90667,1.38667 l 16.63999,35.89331 c 0.16,0.32 0.48,0.58667 0.90667,0.58667 h 0.53333 c 0.42667,0 0.74667,-0.26667 0.90667,-0.58667 l 16.74665,-35.89331 c 0.32,-0.69333 -0.10666,-1.38667 -0.90666,-1.38667 h -7.09333 c -0.42667,0 -0.8,0.32 -0.90667,0.58667 z"
           id="path837" />
        <path
           style="color:#000000;-inkscape-font-specification:'Brandon Text, Medium';-inkscape-stroke:none"
           d="m 160.95965,426.98664 c 0,0.53333 0.42667,1.01333 1.01334,1.01333 h 22.07998 c 0.58667,0 1.01334,-0.48 1.01334,-1.01333 v -5.81333 c 0,-0.53333 -0.42667,-1.01333 -1.01334,-1.01333 h -14.77332 v -7.2 h 12.15999 c 0.53333,0 1.01333,-0.42666 1.01333,-1.01333 v -5.81333 c 0,-0.53333 -0.48,-1.01333 -1.01333,-1.01333 h -12.15999 v -6.61333 h 14.77332 c 0.58667,0 1.01334,-0.48 1.01334,-1.01333 V 391.68 c 0,-0.53334 -0.42667,-1.01334 -1.01334,-1.01334 h -22.07998 c -0.58667,0 -1.01334,0.48 -1.01334,1.01334 z"
           id="path839" />
        <path
           style="color:#000000;-inkscape-font-specification:'Brandon Text, Medium';-inkscape-stroke:none"
           d="m 188.47959,427.99997 h 5.86666 c 1.06667,0 1.65333,-0.64 1.92,-1.28 l 1.92,-4.26666 h 14.50666 l 1.92,4.21333 c 0.48,1.01333 0.90666,1.33333 1.86666,1.33333 h 5.92 c 0.8,0 1.22666,-0.69333 0.90666,-1.38666 L 206.61291,390.72 c -0.16,-0.32 -0.53333,-0.58667 -0.90667,-0.58667 h -0.53333 c -0.37333,0 -0.74666,0.26667 -0.90666,0.58667 l -16.69333,35.89331 c -0.32,0.69333 0.10667,1.38666 0.90667,1.38666 z m 12.90666,-12.79999 3.99999,-8.79999 h 0.0533 l 4.05333,8.79999 z"
           id="path841" />
        <path
           style="color:#000000;-inkscape-font-specification:'Brandon Text, Medium';-inkscape-stroke:none"
           d="m 225.97273,414.34665 c 0,8.10666 6.77333,14.18666 15.14666,14.18666 8.42666,0 15.25333,-6.08 15.25333,-14.18666 V 391.68 c 0,-0.53334 -0.48,-1.01334 -1.01334,-1.01334 h -6.55999 c -0.58667,0 -1.01334,0.48 -1.01334,1.01334 v 22.23998 c 0,3.89333 -2.82666,6.08 -6.66666,6.08 -3.78666,0 -6.55999,-2.18667 -6.55999,-6.08 V 391.68 c 0,-0.53334 -0.42667,-1.01334 -1.01334,-1.01334 h -6.55999 c -0.53334,0 -1.01334,0.48 -1.01334,1.01334 z"
           id="path843" />
        <path
           style="color:#000000;-inkscape-font-specification:'Brandon Text, Medium';-inkscape-stroke:none"
           d="m 270.23931,426.98664 c 0,0.53333 0.48,1.01333 1.01333,1.01333 h 6.4 c 0.53333,0 1.01333,-0.48 1.01333,-1.01333 v -28.47998 h 7.62666 c 0.58667,0 1.01333,-0.48 1.01333,-1.01333 V 391.68 c 0,-0.53334 -0.42666,-1.01334 -1.01333,-1.01334 h -23.67998 c -0.58667,0 -1.01334,0.48 -1.01334,1.01334 v 5.81333 c 0,0.53333 0.42667,1.01333 1.01334,1.01333 h 7.62666 z"
           id="path845" />
        <path
           style="color:#000000;-inkscape-font-specification:'Brandon Text, Medium';-inkscape-stroke:none"
           d="m 292.9059,426.98664 c 0,0.53333 0.42666,1.01333 1.01333,1.01333 h 22.07999 c 0.58666,0 1.01333,-0.48 1.01333,-1.01333 v -5.81333 c 0,-0.53333 -0.42667,-1.01333 -1.01333,-1.01333 h -14.77333 v -7.2 h 12.15999 c 0.53334,0 1.01334,-0.42666 1.01334,-1.01333 v -5.81333 c 0,-0.53333 -0.48,-1.01333 -1.01334,-1.01333 h -12.15999 v -6.61333 h 14.77333 c 0.58666,0 1.01333,-0.48 1.01333,-1.01333 V 391.68 c 0,-0.53334 -0.42667,-1.01334 -1.01333,-1.01334 h -22.07999 c -0.58667,0 -1.01333,0.48 -1.01333,1.01334 z m 8.53332,-39.62664 9.70667,-4.37333 c 0.42666,-0.26667 0.74666,-0.8 0.32,-1.6 L 309.65255,378.24 c -0.26666,-0.48 -1.06666,-0.37333 -1.38666,-0.16 l -9.06666,5.54667 c -0.26667,0.21333 -0.53334,0.58666 -0.32,1.01333 l 1.12,2.24 c 0.26666,0.53333 0.74666,0.90666 1.43999,0.48 z"
           id="path847" />
      </g>
    </g>
  </g>
</svg>
